<svg xmlns="http://www.w3.org/2000/svg" viewBox="0 0 16 16" height="16" width="16"><path style="fill:#000" d="M3.612 15.443c-.386.198-.824-.149-.746-.592l.83-4.73L.173 6.765c-.329-.314-.158-.888.283-.95l4.898-.696L7.538.792c.197-.39.73-.39.927.0l2.184 4.327 4.898.696c.441.062.612.636.282.95l-3.522 3.356.83 4.73c.078.443-.36.79-.746.592L8 13.187l-4.389 2.256z" /><g transform="matrix(0.5,0,0,0.5,4,4.5)" style="fill:#fff"><path style="fill:#fff" d="m5 3a3 3 0 0 1 6 0V8A3 3 0 0 1 5 8z"
        /><path style="fill:#fff" d="M3.5 6.5A.5.5.0 0 1 4 7v1a4 4 0 0 0 8 0V7a.5.5.0 0 1 1 0V8a5 5 0 0 1-4.5 4.975V15h3a.5.5.0 0 1 0 1h-7a.5.5.0 0 1 0-1h3V12.975A5 5 0 0 1 3 8V7a.5.5.0 0 1 .5-.5z"
       /></g></svg>
