<?xml version="1.0" standalone="no"?>
<!DOCTYPE svg PUBLIC "-//W3C//DTD SVG 20010904//EN"
 "http://www.w3.org/TR/2001/REC-SVG-20010904/DTD/svg10.dtd">
<svg version="1.0" xmlns="http://www.w3.org/2000/svg"
 width="700.000000pt" height="700.000000pt" viewBox="0 0 700.000000 700.000000"
 preserveAspectRatio="xMidYMid meet">
<metadata>
Created by potrace 1.14, written by Peter Selinger 2001-2017
</metadata>
<g transform="translate(0.000000,700.000000) scale(0.100000,-0.100000)"
fill="#000000" stroke="none">
<path d="M3404 6757 c-28 -14 -63 -40 -76 -58 -14 -19 -238 -455 -497 -970
-259 -514 -477 -943 -484 -953 -10 -14 -203 -44 -1093 -171 -595 -84 -1097
-160 -1115 -168 -42 -17 -92 -68 -116 -116 -27 -55 -24 -165 6 -217 14 -25
332 -335 806 -787 576 -549 782 -751 779 -764 -2 -10 -86 -481 -185 -1048
-138 -788 -179 -1042 -175 -1079 8 -68 50 -133 110 -171 42 -25 59 -30 115
-30 l66 0 978 503 978 503 772 -397 c1308 -672 1189 -614 1244 -614 123 0 233
109 233 229 0 22 -81 501 -180 1065 -99 564 -180 1034 -180 1044 0 13 278 284
778 761 473 451 787 757 801 781 62 110 22 263 -85 326 -38 22 -145 39 -1130
179 -598 85 -1091 158 -1095 162 -4 5 -222 433 -484 953 -262 520 -489 960
-504 979 -60 77 -175 101 -267 58z m239 -1743 c198 -44 362 -176 449 -361 63
-133 61 -113 65 -768 4 -626 1 -702 -38 -817 -61 -184 -223 -345 -409 -409
-89 -30 -267 -38 -364 -15 -204 48 -393 218 -462 415 -42 121 -45 189 -41 826
4 656 2 634 65 769 88 188 263 325 467 366 68 13 193 11 268 -6z m-1057 -1435
c36 -34 44 -79 44 -251 0 -237 36 -370 146 -534 124 -187 330 -325 553 -370
112 -22 304 -15 409 15 293 85 525 320 608 618 12 41 18 121 23 271 l6 212 33
33 c27 27 40 32 78 32 39 0 50 -5 75 -33 l29 -32 0 -184 c0 -199 -13 -304 -53
-421 -56 -164 -167 -337 -287 -448 -169 -157 -350 -243 -617 -293 l-23 -4 0
-220 0 -220 343 0 c306 0 345 -2 367 -17 39 -27 49 -45 50 -90 0 -33 -6 -50
-29 -75 l-29 -33 -812 0 -812 0 -29 33 c-23 25 -29 42 -29 75 1 45 11 63 50
90 22 15 61 17 367 17 l343 0 0 220 0 220 -22 4 c-13 2 -71 15 -130 29 -411
96 -733 437 -813 860 -10 53 -15 141 -15 267 0 176 1 189 21 214 12 15 31 32
43 37 32 13 86 3 112 -22z"/>
</g>
</svg>
